<?xml version="1.0" encoding="utf-8"?>
<!-- Generator: Adobe Illustrator 19.1.0, SVG Export Plug-In . SVG Version: 6.00 Build 0)  -->
<svg version="1.1" id="Capa_1" xmlns="http://www.w3.org/2000/svg" xmlns:xlink="http://www.w3.org/1999/xlink" x="0px" y="0px"
	 viewBox="-324 198 374 374" style="enable-background:new -324 198 374 374;" xml:space="preserve">
<style type="text/css">
	.st0{fill:#3888C5;}
</style>
<g>
	<g>
		<g>
			<path class="st0" d="M-153.1,363.6H-264c-4.5,0-8.4,2.9-9.6,7.2l-21.3,73.7l149.3,16.3l11.7-56.1
				C-141.2,391.8-147.9,377.9-153.1,363.6z"/>
			<path class="st0" d="M-13.6,475.4l44.8,4.9l-13.4-46.3c-1.8,2.6-3.6,5.2-5.3,7.7C3.4,454.4-5.7,465.8-13.6,475.4z"/>
			<path class="st0" d="M-110.9,441.2l-4.8,23l24.2,2.6c-6.1-7.6-12.6-16-19-25.1C-110.6,441.5-110.7,441.3-110.9,441.2z"/>
			<path class="st0" d="M-323.6,544c-0.9,3-0.3,6.3,1.6,8.8c1.9,2.5,4.8,4,8,4h148.3l13.9-66.4l-151.5-16.6L-323.6,544z"/>
			<path class="st0" d="M40.2,511.4l-162-17.7l-13.2,63.1H40c0,0,0,0,0,0c5.5,0,10-4.5,10-10c0-1.2-0.2-2.3-0.6-3.4L40.2,511.4z"/>
			<path class="st0" d="M-53.2,488.1c1.1,1.1,2.6,1.8,4.1,1.8c1.6,0,3.1-0.6,4.1-1.8c9.1-9.7,27.1-29.8,45.1-55.1
				c22.7-32,49.8-78.9,49.8-120.6c0-54.6-44.4-99-99.1-99c-54.6,0-99,44.4-99,99c0,41.8,27.1,88.7,49.8,120.7
				C-80.2,458.4-62.3,478.4-53.2,488.1z M-49,250.5c33.4,0,60.5,27.1,60.5,60.5c0,33.3-27.1,60.5-60.5,60.5
				c-33.3,0-60.5-27.1-60.5-60.5C-109.5,277.6-82.4,250.5-49,250.5z"/>
		</g>
	</g>
</g>
</svg>
