<?xml version="1.0" encoding="utf-8"?>
<!-- Generator: Adobe Illustrator 19.1.0, SVG Export Plug-In . SVG Version: 6.00 Build 0)  -->
<svg version="1.1" id="Capa_1" xmlns="http://www.w3.org/2000/svg" xmlns:xlink="http://www.w3.org/1999/xlink" x="0px" y="0px"
	 viewBox="-383 803 512 512" style="enable-background:new -383 803 512 512;" xml:space="preserve">
<style type="text/css">
	.st0{fill:#19C589;}
</style>
<g>
	<g id="Sunrise">
		<g>
			<path class="st0" d="M1,953.6c6.2,0,11.9-2.5,16-6.6l30.1-30.1c4.1-4.1,6.6-9.7,6.6-16c0-12.5-10.1-22.6-22.6-22.6
				c-6.2,0-11.9,2.5-16,6.6L-15,915c-4.1,4.1-6.6,9.7-6.6,16C-21.6,943.5-11.5,953.6,1,953.6z M-119.5,893.4
				c12.5,0,22.6-10.1,22.6-22.6v-45.2c0-12.5-10.1-22.6-22.6-22.6c-12.5,0-22.6,10.1-22.6,22.6v45.2
				C-142.1,883.2-131.9,893.4-119.5,893.4z M-135.4,1140.9l-66.9,66.9l31.9,31.9l28.3-28.3V1315h45.2v-103.6l28.3,28.3l31.9-31.9
				l-66.9-66.8C-112.3,1132.1-126.6,1132.1-135.4,1140.9z M91.4,1059H8c0.2-2.5,0.5-5,0.5-7.5c0-70.7-57.3-128-128-128
				c-70.7,0-128,57.3-128,128c0,2.6,0.4,5,0.5,7.5h-98.4c-12.5,0-22.6,10.1-22.6,22.6s10.1,22.6,22.6,22.6H91.4
				c12.5,0,22.6-10.1,22.6-22.6S103.8,1059,91.4,1059z M-37.1,1059h-164.7c-0.2-2.5-0.5-5-0.5-7.5c0-45.7,37.1-82.8,82.8-82.8
				c45.7,0,82.8,37.1,82.8,82.8C-36.6,1054-36.9,1056.5-37.1,1059z M-255.9,947c4.1,4.1,9.7,6.6,16,6.6c12.5,0,22.6-10.1,22.6-22.6
				c0-6.2-2.5-11.9-6.6-16l-30.1-30.1c-4.1-4.1-9.7-6.6-16-6.6c-12.5,0-22.6,10.1-22.6,22.6c0,6.2,2.5,11.9,6.6,16L-255.9,947z"/>
		</g>
	</g>
</g>
</svg>
