<?xml version="1.0" encoding="utf-8"?>
<!-- Generator: Adobe Illustrator 19.1.0, SVG Export Plug-In . SVG Version: 6.00 Build 0)  -->
<svg version="1.1" id="Capa_1" xmlns="http://www.w3.org/2000/svg" xmlns:xlink="http://www.w3.org/1999/xlink" x="0px" y="0px"
	 viewBox="-383 803 512 512" style="enable-background:new -383 803 512 512;" xml:space="preserve">
<style type="text/css">
	.st0{fill:#19C589;}
</style>
<g>
	<g id="Wind">
		<g>
			<path class="st0" d="M-71,1091h-288c-13.3,0-24,10.8-24,24s10.7,24,24,24h288c22,0,40,17.9,40,40c0,22.1-18,40-40,40
				s-40-17.9-40-40c0-13.2-10.7-24-24-24s-24,10.8-24,24c0,48.5,39.5,88,88,88s88-39.5,88-88S-22.5,1091-71,1091z M25,851
				c-57.3,0-104,46.7-104,104c0,13.2,10.7,24,24,24s24-10.8,24-24c0-30.9,25.1-56,56-56s56,25.1,56,56s-25.1,56-56,56h-336
				c-13.3,0-24,10.8-24,24c0,13.2,10.7,24,24,24H25c57.3,0,104-46.7,104-104S82.3,851,25,851z"/>
		</g>
	</g>
</g>
</svg>
